<?xml version="1.0" encoding="UTF-8"?>
<!DOCTYPE svg PUBLIC "-//W3C//DTD SVG 1.1//EN" "http://www.w3.org/Graphics/SVG/1.1/DTD/svg11.dtd">
<svg xmlns="http://www.w3.org/2000/svg" version="1.1" width="512px" height="512px" style="shape-rendering:geometricPrecision; text-rendering:geometricPrecision; image-rendering:optimizeQuality; fill-rule:evenodd; clip-rule:evenodd" xmlns:xlink="http://www.w3.org/1999/xlink">
<g><path style="opacity:0.981" fill="#000000" d="M 144.5,41.5 C 189.835,41.3333 235.168,41.5 280.5,42C 292.155,44.4843 298.155,51.6509 298.5,63.5C 321.746,59.3981 342.746,64.2314 361.5,78C 372.663,88.1541 379.83,100.654 383,115.5C 383.5,147.832 383.667,180.165 383.5,212.5C 393.839,212.334 404.172,212.5 414.5,213C 446.025,219.525 464.192,238.691 469,270.5C 469.667,317.5 469.667,364.5 469,411.5C 463.806,444.694 444.639,463.861 411.5,469C 364.5,469.667 317.5,469.667 270.5,469C 249.841,466.426 233.675,456.593 222,439.5C 219.597,435.365 217.763,431.032 216.5,426.5C 176.499,426.667 136.499,426.5 96.5,426C 67.975,420.475 50.1416,403.641 43,375.5C 41.8493,332.031 41.3493,288.531 41.5,245C 41.6667,203.5 41.8333,162 42,120.5C 47.065,90.1019 64.565,71.2686 94.5,64C 105.495,63.5002 116.495,63.3335 127.5,63.5C 127.937,52.0691 133.604,44.7358 144.5,41.5 Z M 102.5,106.5 C 110.833,106.5 119.167,106.5 127.5,106.5C 127.313,117.144 132.313,123.978 142.5,127C 189.5,127.667 236.5,127.667 283.5,127C 292.864,123.456 297.864,116.622 298.5,106.5C 307.9,106.114 317.234,106.614 326.5,108C 332.667,110.167 336.833,114.333 339,120.5C 340.469,151.117 340.969,181.784 340.5,212.5C 314.129,212.055 287.796,212.555 261.5,214C 234.478,222.021 218.311,239.854 213,267.5C 212.5,306.165 212.333,344.832 212.5,383.5C 176.832,383.667 141.165,383.5 105.5,383C 97.1537,381.976 90.987,377.809 87,370.5C 85.3417,287.89 85.0084,205.223 86,122.5C 88.7778,114.22 94.2778,108.887 102.5,106.5 Z M 276.5,255.5 C 319.501,255.333 362.501,255.5 405.5,256C 415.369,257.008 421.869,262.175 425,271.5C 425.667,317.5 425.667,363.5 425,409.5C 422.5,417.333 417.333,422.5 409.5,425C 363.5,425.667 317.5,425.667 271.5,425C 261.878,421.609 256.711,414.776 256,404.5C 255.333,362.167 255.333,319.833 256,277.5C 257.215,264.789 264.048,257.455 276.5,255.5 Z"/></g>
</svg>
